<svg xmlns="http://www.w3.org/2000/svg" xmlns:xlink="http://www.w3.org/1999/xlink" width="40" zoomAndPan="magnify" viewBox="0 0 30 30.000001" height="40" preserveAspectRatio="xMidYMid meet" version="1.0"><defs><clipPath id="3d112fc1cf"><path d="M 0.484375 3 L 29.515625 3 L 29.515625 26 L 0.484375 26 Z M 0.484375 3 " clip-rule="nonzero"/></clipPath></defs><g clip-path="url(#3d112fc1cf)"><path fill="#41c1ba" d="M 26.199219 5.390625 C 27.855469 7.257812 27.234375 9.539062 25.160156 11.820312 C 21.429688 15.554688 13.339844 19.078125 5.046875 20.113281 C 3.59375 20.324219 1.933594 20.324219 0.484375 20.324219 C 2.144531 20.945312 4.007812 21.152344 5.875 21.152344 C 7.949219 23.847656 11.058594 25.507812 14.585938 25.507812 C 19.769531 25.507812 24.125 21.773438 25.367188 17.003906 C 23.085938 18.25 20.183594 19.285156 16.867188 19.699219 C 20.390625 18.457031 23.503906 16.796875 25.574219 15.136719 C 29.929688 11.613281 31.382812 7.464844 26.199219 5.597656 Z M 22.671875 5.390625 C 22.671875 6.222656 23.296875 6.84375 24.125 6.84375 C 24.953125 6.84375 25.574219 6.222656 25.574219 5.390625 C 25.574219 4.5625 24.953125 3.941406 24.125 3.941406 C 23.296875 3.941406 22.671875 4.5625 22.671875 5.390625 Z M 22.671875 5.390625 " fill-opacity="1" fill-rule="evenodd"/></g><path fill="#289dd2" d="M 13.546875 7.050781 C 13.339844 6.015625 13.339844 4.769531 13.339844 3.734375 C 9.609375 4.148438 6.496094 6.429688 4.839844 9.539062 C 5.460938 9.332031 6.289062 9.125 6.914062 8.917969 C 6.914062 8.296875 7.535156 7.878906 8.15625 7.878906 C 8.570312 7.878906 8.984375 8.085938 9.195312 8.503906 C 10.4375 8.296875 11.683594 8.085938 12.925781 8.085938 C 13.132812 7.671875 13.339844 7.464844 13.753906 7.257812 Z M 15.207031 7.257812 C 16.867188 6.429688 18.941406 6.015625 21.222656 5.804688 C 19.355469 4.355469 17.074219 3.523438 14.585938 3.523438 C 14.585938 3.523438 14.378906 3.523438 14.378906 3.523438 C 14.378906 4.5625 14.378906 5.804688 14.585938 6.84375 C 14.792969 6.84375 15.207031 7.050781 15.414062 7.257812 Z M 15.621094 8.085938 C 18.523438 8.503906 21.429688 9.539062 24.125 11.613281 C 24.125 11.613281 24.332031 11.40625 24.332031 11.40625 C 24.332031 11.40625 24.539062 11.199219 24.539062 11.199219 C 23.917969 9.539062 23.085938 8.085938 21.84375 6.84375 L 21.429688 6.84375 C 19.148438 6.84375 17.074219 7.464844 15.414062 8.085938 Z M 15 9.746094 C 15.621094 11.820312 16.453125 13.894531 17.488281 15.761719 C 19.5625 14.722656 21.84375 13.6875 23.710938 12.027344 C 21.015625 10.160156 18.316406 9.125 15.621094 8.710938 C 15.414062 9.125 15.207031 9.332031 15 9.539062 Z M 13.132812 9.539062 C 10.023438 11.820312 7.949219 15.34375 5.875 19.078125 C 6.082031 19.078125 6.289062 19.078125 6.496094 19.078125 C 10.023438 18.457031 13.546875 17.417969 16.867188 16.175781 C 15.621094 14.101562 14.792969 12.027344 14.171875 9.953125 C 13.753906 9.953125 13.339844 9.746094 13.132812 9.539062 Z M 12.71875 8.710938 C 11.683594 8.710938 10.4375 8.917969 9.195312 9.125 C 9.195312 9.746094 8.570312 10.160156 7.949219 10.160156 C 7.535156 10.160156 7.121094 9.953125 6.914062 9.746094 C 6.082031 9.953125 5.253906 10.160156 4.425781 10.574219 L 4.007812 10.785156 C 3.59375 12.027344 3.179688 13.480469 3.179688 14.929688 C 3.179688 16.589844 3.59375 18.25 4.214844 19.699219 L 4.425781 19.699219 L 4.632812 19.492188 C 6.703125 15.34375 8.984375 11.613281 12.304688 9.332031 Z M 12.71875 8.710938 " fill-opacity="1" fill-rule="evenodd"/></svg>