<svg xmlns="http://www.w3.org/2000/svg" xmlns:xlink="http://www.w3.org/1999/xlink" width="50" zoomAndPan="magnify" viewBox="0 0 37.5 30.000001" height="40" preserveAspectRatio="xMidYMid meet" version="1.0"><defs><clipPath id="e57df10b7c"><path d="M 0.363281 0 L 36.652344 0 L 36.652344 29.03125 L 0.363281 29.03125 Z M 0.363281 0 " clip-rule="nonzero"/></clipPath><clipPath id="03d8a3ff1a"><path d="M 3.992188 3 L 33.023438 3 L 33.023438 26 L 3.992188 26 Z M 3.992188 3 " clip-rule="nonzero"/></clipPath></defs><g clip-path="url(#e57df10b7c)"><path fill="#ffffff" d="M 0.363281 0 L 36.652344 0 L 36.652344 29.03125 L 0.363281 29.03125 Z M 0.363281 0 " fill-opacity="1" fill-rule="nonzero"/><path fill="#1f262d" d="M 0.363281 0 L 36.652344 0 L 36.652344 29.03125 L 0.363281 29.03125 Z M 0.363281 0 " fill-opacity="1" fill-rule="nonzero"/></g><g clip-path="url(#03d8a3ff1a)"><path fill="#41c1ba" d="M 29.707031 5.390625 C 31.363281 7.257812 30.742188 9.539062 28.667969 11.820312 C 24.9375 15.554688 16.847656 19.078125 8.554688 20.113281 C 7.101562 20.324219 5.445312 20.324219 3.992188 20.324219 C 5.652344 20.945312 7.515625 21.152344 9.382812 21.152344 C 11.457031 23.847656 14.566406 25.507812 18.09375 25.507812 C 23.277344 25.507812 27.632812 21.773438 28.875 17.003906 C 26.59375 18.25 23.691406 19.285156 20.375 19.699219 C 23.898438 18.457031 27.011719 16.796875 29.085938 15.136719 C 33.4375 11.613281 34.890625 7.464844 29.707031 5.597656 Z M 26.179688 5.390625 C 26.179688 6.222656 26.804688 6.84375 27.632812 6.84375 C 28.460938 6.84375 29.085938 6.222656 29.085938 5.390625 C 29.085938 4.5625 28.460938 3.941406 27.632812 3.941406 C 26.804688 3.941406 26.179688 4.5625 26.179688 5.390625 Z M 26.179688 5.390625 " fill-opacity="1" fill-rule="evenodd"/></g><path fill="#289dd2" d="M 17.054688 7.050781 C 16.847656 6.015625 16.847656 4.769531 16.847656 3.734375 C 13.117188 4.148438 10.003906 6.429688 8.347656 9.539062 C 8.96875 9.332031 9.796875 9.125 10.421875 8.917969 C 10.421875 8.296875 11.042969 7.878906 11.664062 7.878906 C 12.078125 7.878906 12.496094 8.085938 12.703125 8.503906 C 13.945312 8.296875 15.191406 8.085938 16.433594 8.085938 C 16.640625 7.671875 16.847656 7.464844 17.265625 7.257812 Z M 18.714844 7.257812 C 20.375 6.429688 22.449219 6.015625 24.730469 5.804688 C 22.863281 4.355469 20.582031 3.523438 18.09375 3.523438 C 18.09375 3.523438 17.886719 3.523438 17.886719 3.523438 C 17.886719 4.5625 17.886719 5.804688 18.09375 6.84375 C 18.300781 6.84375 18.714844 7.050781 18.921875 7.257812 Z M 19.128906 8.085938 C 22.035156 8.503906 24.9375 9.539062 27.632812 11.613281 C 27.632812 11.613281 27.839844 11.40625 27.839844 11.40625 C 27.839844 11.40625 28.046875 11.199219 28.046875 11.199219 C 27.425781 9.539062 26.59375 8.085938 25.351562 6.84375 L 24.9375 6.84375 C 22.65625 6.84375 20.582031 7.464844 18.921875 8.085938 Z M 18.507812 9.746094 C 19.128906 11.820312 19.960938 13.894531 20.996094 15.761719 C 23.070312 14.722656 25.351562 13.6875 27.21875 12.027344 C 24.523438 10.160156 21.824219 9.125 19.128906 8.710938 C 18.921875 9.125 18.714844 9.332031 18.507812 9.539062 Z M 16.640625 9.539062 C 13.53125 11.820312 11.457031 15.34375 9.382812 19.078125 C 9.589844 19.078125 9.796875 19.078125 10.003906 19.078125 C 13.53125 18.457031 17.054688 17.417969 20.375 16.175781 C 19.128906 14.101562 18.300781 12.027344 17.679688 9.953125 C 17.265625 9.953125 16.847656 9.746094 16.640625 9.539062 Z M 16.226562 8.710938 C 15.191406 8.710938 13.945312 8.917969 12.703125 9.125 C 12.703125 9.746094 12.078125 10.160156 11.457031 10.160156 C 11.042969 10.160156 10.628906 9.953125 10.421875 9.746094 C 9.589844 9.953125 8.761719 10.160156 7.933594 10.574219 L 7.515625 10.785156 C 7.101562 12.027344 6.6875 13.480469 6.6875 14.929688 C 6.6875 16.589844 7.101562 18.25 7.726562 19.699219 L 7.933594 19.699219 L 8.140625 19.492188 C 10.214844 15.34375 12.496094 11.613281 15.8125 9.332031 Z M 16.226562 8.710938 " fill-opacity="1" fill-rule="evenodd"/></svg>